<?xml version="1.0" standalone="no"?>
<!DOCTYPE svg PUBLIC "-//W3C//DTD SVG 20010904//EN"
 "http://www.w3.org/TR/2001/REC-SVG-20010904/DTD/svg10.dtd">
<svg version="1.0" xmlns="http://www.w3.org/2000/svg"
 width="512.000000pt" height="512.000000pt" viewBox="0 0 512.000000 512.000000"
 preserveAspectRatio="xMidYMid meet">
<metadata>
Created by potrace 1.11, written by Peter Selinger 2001-2013
</metadata>
<g transform="translate(0.000000,512.000000) scale(0.100000,-0.100000)"
fill="#000000" stroke="none">
<path d="M920 5026 c-164 -31 -334 -106 -447 -198 -174 -142 -324 -376 -357
-558 -3 -19 -9 -46 -13 -60 -11 -36 -14 -3206 -4 -3260 5 -25 12 -58 14 -75
11 -61 40 -142 82 -227 129 -260 354 -444 642 -526 l98 -27 1615 0 c888 0
1635 4 1659 8 23 5 55 13 70 18 14 6 26 10 26 9 0 -8 100 28 158 56 175 83
306 197 410 352 62 95 125 241 141 328 3 16 9 40 13 54 4 14 9 745 10 1625 2
1554 2 1603 -17 1690 -44 202 -127 359 -263 498 -116 118 -220 187 -372 245
-168 64 -100 61 -1830 60 -1178 0 -1586 -3 -1635 -12z m1776 -939 c5 -3 30 -8
54 -12 88 -12 210 -61 340 -135 95 -54 235 -193 307 -306 47 -71 115 -231 129
-299 15 -74 24 -141 29 -215 11 -155 61 -188 298 -195 95 -2 112 -6 145 -27
41 -28 78 -92 90 -159 10 -55 8 -764 -2 -838 -30 -218 -147 -445 -305 -593
-153 -144 -361 -241 -568 -265 -75 -9 -1230 -9 -1308 1 -33 3 -85 14 -115 22
-30 9 -62 18 -71 19 -10 2 -50 19 -91 38 -322 148 -526 421 -584 777 -10 63
-11 1219 -1 1310 37 338 254 640 562 785 190 90 274 101 735 99 191 0 351 -3
356 -7z"/>
<path d="M1969 3274 c-75 -23 -121 -88 -122 -175 0 -62 38 -122 98 -153 38
-20 56 -21 350 -21 345 0 360 3 409 68 71 94 43 223 -61 273 -34 16 -68 18
-336 19 -205 0 -310 -3 -338 -11z"/>
<path d="M1982 2199 c-68 -14 -129 -84 -135 -155 -4 -48 8 -89 41 -133 49 -66
36 -64 667 -66 335 -1 582 3 600 8 78 25 127 92 128 178 0 59 -33 115 -90 150
l-38 24 -571 0 c-314 0 -585 -2 -602 -6z"/>
</g>
</svg>
